<?xml version="1.0" encoding="utf-8"?>
<?xml-stylesheet type="text/xsl" href="rss1.xsl"?>
<rss version="2.0" xmlns:atom="http://www.w3.org/2005/Atom" xmlns:content="http://purl.org/rss/1.0/modules/content/" xmlns:dc="http://purl.org/dc/elements/1.1/" xmlns:media="http://search.yahoo.com/mrss/">
<channel>
 <title>Getty</title>
 <link>http://www.gettyimg.com/</link>
 <atom:link href="http://www.gettyimg.com/" rel="self" type="application/rss+xml" />

 
                <item>
                <title><![CDATA[【Cinema Center】MOVIE - Warlock.II.The.Armageddon.1993.720p.TUBI.WEB-DL.AAC2.0.x264-Samuel]]></title>
                <link><![CDATA[https://sharemania.us/threads/warlock-ii-the-armageddon-1993-720p-tubi-web-dl-aac2-0-x264-samuel.245970/]]></link>
                <description><![CDATA[<article>
<blockquote class="messageText SelectQuoteContainer ugc baseHtml">
<div style="text-align: center"><b><span style="font-size: 26px">Warlock II: The Armageddon</span></b><br>
<img src="https://i.imgur.com/YgZkGzb.jpeg" class="bbCodeImage LbImage" alt="[​IMG]" data-url="https://i.imgur.com/YgZkGzb.jpeg" style=""><br>
<a href="https://i.imgur.com/sdcVDSb.jpeg" target="_blank" class="externalLink" rel="nofollow"><b>Alternate Artwork</b></a> | <a href="https://i.imgur.com/yXbvXbE.jpeg" target="_blank" class="externalLink" rel="nofollow"><b>Hero Image</b></a> | <a href="https://i.imgur.com/fvZmes3.jpeg" target="_blank" class="externalLink" rel="nofollow"><b>Poster 1</b></a> | <a href="https://i.imgur.com/H0A0rTK.jpeg" target="_blank" class="externalLink" rel="nofollow"><b>Poster 2</b></a> | <a href="https://i.imgur.com/mmKyCM9.jpeg" target="_blank" class="externalLink" rel="nofollow"><b>Thumbnail 1</b></a> | <a href="https://i.imgur.com/9BR1YfS.jpeg" target="_blank" class="externalLink" rel="nofollow"><b>Thumbnail 2</b></a> | <a href="https://i.imgur.com/xzdS4FX.png" target="_blank" class="externalLink" rel="nofollow"><b>Thumbnail 3</b></a> | <a href="https://i.imgur.com/o5HLBEV.jpeg" target="_blank" class="externalLink" rel="nofollow"><b>Thumbnail 4</b></a><br>
<br>
1993 • 1 hr 39 min • <img src="https://i.imgur.com/lmVOA1V.png" class="bbCodeImage LbImage" alt="[​IMG]" data-url="https://i.imgur.com/lmVOA1V.png" style=""> • R<br>
Horror • Fantasy<br>
<br>
<div class="bbCodeBlock bbCodeQuote">
<aside>
<blockquote class="quoteContainer"><div class="quote"><b><span style="font-size: 15px"><span style="font-family: 'Arial'">Description</span></span></b><br>
When Satan's son tries to unleash his father's wrath upon the world, two warriors are called to prevent annihilation, and send Satan back to hell.</div><div class="quoteExpand">Click to expand...</div></blockquote>
</aside>
</div>
<div class="bbCodeBlock bbCodeQuote">
<aside>
<blockquote class="quoteContainer"><div class="quote"><span style="font-family: 'Arial'"><span style="font-size: 15px"><b>Trailers &amp; Previews</b></span></span><br>
<span data-s9e-mediaembed="googledrive" style="display:inline-block;width:100%;max-width:640px"><span style="display:block;overflow:hidden;position:relative;padding-bottom:75%"><iframe allowfullscreen="" loading="lazy" scrolling="no" src="//drive.google.com/file/d/1PMRoXwAMYUNixoBaZgc5mSrcd7RYx3ke/preview" style="border:0;height:100%;left:0;position:absolute;width:100%"></iframe></span></span></div><div class="quoteExpand quoteCut">Click to expand...</div></blockquote>
</aside>
</div>
<div class="bbCodeBlock bbCodeQuote">
<aside>
<blockquote class="quoteContainer"><div class="quote"><b><span style="font-size: 15px"><span style="font-family: 'Arial'">More Information</span></span></b><br>
<b>Subtitles:</b> English<br>
<br>
<b>Starring:</b> Julian Sands, Chris Young, Paula Marshall, Joanna Pacula, Steve Kahan, R.G. Armstrong, Charles Hallahan, Bruce Glover, Craig Hurley, Davis Gaines, Rebecca Street, Dawn Ann Billings, Zach Galligan, Wren T. Brown, Gary Carlos Cervantes, Bryan Smith<br>
<b>Directed by:</b> Anthony Hickox<br>
<br>
1993 • R • AAC 2.0 • HD</div><div class="quoteExpand quoteCut">Click to expand...</div></blockquote>
</aside>
</div>
<div class="bbCodeBlock bbCodeQuote">
<aside>
<blockquote class="quoteContainer"><div class="quote"><b><span style="font-size: 15px">Source</span></b><br>
<img src="https://i.imgur.com/EtiJUaf.png" class="bbCodeImage LbImage" alt="[​IMG]" data-url="https://i.imgur.com/EtiJUaf.png" style=""></div><div class="quoteExpand">Click to expand...</div></blockquote>
</aside>
</div>
<div class="bbCodeBlock bbCodeQuote">
<aside>
<blockquote class="quoteContainer"><div class="quote"><b><span style="font-size: 15px">Release Name</span></b><br>
Warlock.II.The.Armageddon.1993.720p.TUBI.WEB-DL.AAC2.0.x264-Samuel</div><div class="quoteExpand">Click to expand...</div></blockquote>
</aside>
</div>
<div class="ToggleTriggerAnchor bbCodeSpoilerContainer">
<button type="button" class="button bbCodeSpoilerButton ToggleTrigger Tooltip JsOnly" data-target="> .SpoilerTarget"><span>Spoiler: <span class="SpoilerTitle">Media Information</span></span></button>
<div class="SpoilerTarget bbCodeSpoilerText">General<br>
Complete name : Warlock.II.The.Armageddon.1993.720p.TUBI.WEB-DL.AAC2.0.x264-Samuel.mkv<br>
Format : Matroska<br>
Format version : Version 4<br>
File size : 1.74 GiB<br>
Duration : 1 h 38 min<br>
Overall bit rate : 2 530 kb/s<br>
Frame rate : 23.976 FPS<br>
Encoded date : 2024-05-25 09:45:37 UTC<br>
Writing application : mkvmerge v84.0 ('Sleeper') 64-bit<br>
Writing library : libebml v1.4.5 + libmatroska v1.7.1<br>
<br>
Video<br>
ID : 1<br>
Format : AVC<br>
Format/Info : Advanced Video Codec<br>
Format profile : High@L4<br>
Format settings : CABAC / 4 Ref Frames<br>
Format settings, CABAC : Yes<br>
Format settings, Reference frames : 4 frames<br>
Codec ID : V_MPEG4/ISO/AVC<br>
Duration : 1 h 38 min<br>
Bit rate : 2 402 kb/s<br>
Width : 1 280 pixels<br>
Height : 720 pixels<br>
Display aspect ratio : 16:9<br>
Frame rate mode : Constant<br>
Frame rate : 23.976 (24000/1001) FPS<br>
Color space : YUV<br>
Chroma subsampling : 4:2:0<br>
Bit depth : 8 bits<br>
Scan type : Progressive<br>
Bits/(Pixel*Frame) : 0.109<br>
Stream size : 1.65 GiB (95%)<br>
Writing library : x264 core 157<br>
Encoding settings : cabac=1 / ref=4 / deblock=1:0:0 / analyse=0x3:0x133 / me=umh / subme=8 / psy=1 / psy_rd=1.00:0.00 / mixed_ref=1 / me_range=16 / chroma_me=1 / trellis=0 / 8x8dct=1 / cqm=0 / deadzone=21,11 / fast_pskip=1 / chroma_qp_offset=-2 / threads=1 / lookahead_threads=1 / sliced_threads=0 / nr=0 / decimate=1 / interlaced=0 / bluray_compat=0 / constrained_intra=0 / bframes=4 / b_pyramid=2 / b_adapt=2 / b_bias=0 / direct=3 / weightb=1 / open_gop=0 / weightp=2 / keyint=81 / keyint_min=41 / scenecut=0 / intra_refresh=0 / rc_lookahead=40 / rc=crf / mbtree=1 / crf=1.0 / qcomp=0.60 / qpmin=0 / qpmax=69 / qpstep=4 / vbv_maxrate=2400 / vbv_bufsize=1920 / crf_max=0.0 / nal_hrd=none / filler=0 / ip_ratio=1.41 / aq=1:1.00<br>
Default : Yes<br>
Forced : No<br>
<br>
Audio<br>
ID : 2<br>
Format : AAC LC<br>
Format/Info : Advanced Audio Codec Low Complexity<br>
Codec ID : A_AAC-2<br>
Duration : 1 h 38 min<br>
Bit rate : 126 kb/s<br>
Channel(s) : 2 channels<br>
Channel layout : L R<br>
Sampling rate : 44.1 kHz<br>
Frame rate : 43.066 FPS (1024 SPF)<br>
Compression mode : Lossy<br>
Stream size : 88.5 MiB (5%)<br>
Language : English<br>
Default : Yes<br>
Forced : No<br>
<br>
Text<br>
ID : 3<br>
Format : UTF-8<br>
Codec ID : S_TEXT/UTF8<br>
Codec ID/Info : UTF-8 Plain Text<br>
Duration : 1 h 37 min<br>
Bit rate : 39 b/s<br>
Frame rate : 0.188 FPS<br>
Count of elements : 1097<br>
Stream size : 28.0 KiB (0%)<br>
Language : English<br>
Default : No<br>
Forced : No</div>
</div><br>
<b>Screenshots</b><br>
<img src="https://i.imgur.com/9NGpUn2.png" class="bbCodeImage LbImage" alt="[​IMG]" data-url="https://i.imgur.com/9NGpUn2.png" style=""><br>
<br>
<b>Download</b><br>
<div class="bbCodeBlock bbCodeVfcHH HiddenContent">
<div class="attribution type">Hidden Content:</div>
<blockquote>You must reply before you can see the hidden data contained here.</blockquote>
</div></div>
<div class="messageTextEndMarker">&nbsp;</div>
</blockquote>
</article>]]></description>
                <author><![CDATA[Samuel]]></author>
                </item>

                </channel></rss>